<?xml version="1.0" encoding="utf-8"?>
<!-- Generator: Adobe Illustrator 25.2.2, SVG Export Plug-In . SVG Version: 6.00 Build 0)  -->
<svg version="1.1" id="Layer_1" xmlns="http://www.w3.org/2000/svg" xmlns:xlink="http://www.w3.org/1999/xlink" x="0px" y="0px"
	 viewBox="0 0 861.7 280.1" style="enable-background:new 0 0 861.7 280.1;" xml:space="preserve">
<style type="text/css">
	.st0{clip-path:url(#SVGID_2_);fill:#FFFFFF;}
	.st1{clip-path:url(#SVGID_4_);fill:#FFFFFF;}
</style>
<g>
	<g>
		<defs>
			<rect id="SVGID_1_" x="66" y="23.6" width="730" height="232.3"/>
		</defs>
		<clipPath id="SVGID_2_">
			<use xlink:href="#SVGID_1_"  style="overflow:visible;"/>
		</clipPath>
		<path class="st0" d="M688.8,153h-19.2l-24.5,41.6L620.5,153h-19.8l35.8,57.7v43.8h17.1v-43.8L688.8,153z M559.9,151.6
			c-27.9,0-47.1,21.1-47.1,52.1c-0.4,30.8,19.5,52.6,47.1,52.2c23,0,40.6-14.1,44.2-35.4h-18.2c-3.1,11.2-13.2,18.6-26,18.6
			c-17.1,0-28.9-13.6-28.9-35.4c0-21.1,11.4-35.4,29.1-35.4c12.9,0,22.7,7.3,25.9,18.6h18.2C600.4,165.6,582.8,151.6,559.9,151.6
			 M501.5,153h-17.2v71.4L439.3,153h-17.8v101.5h17.2V183l44.8,71.5h17.8L501.5,153L501.5,153z M342.3,153v101.5h66.8v-16.4h-49.5
			v-26.6h45.7v-15.4h-45.7v-26.7h49.6V153H342.3z M333.8,208.8c0-1.8-0.1-4.5-0.6-8l-52.4,3.5v10.5h35.4
			c-0.7,14.7-12.7,25.1-28.4,25.1c-18.5,0-30.6-13.9-30.6-35.7c0-21.7,11.8-36.1,30.4-36.1c12.3,0,22.6,6.9,25.7,17.4h17.6
			c-3.1-20.2-20.7-33.7-43.7-33.7c-28.5-0.4-48.3,21.7-47.9,52.4c0,31.2,19.2,51.9,48.3,51.9C315.3,255.9,333.8,236.9,333.8,208.8
			 M210.9,219.1h-31.1l15.6-47.6L210.9,219.1z M215.7,230.1l6.9,24.4h19.7L205.5,153h-20.8l-35.6,101.5h19.1l6.9-24.4H215.7z"/>
	</g>
	<g>
		<defs>
			<rect id="SVGID_3_" x="66" y="23.6" width="730" height="232.3"/>
		</defs>
		<clipPath id="SVGID_4_">
			<use xlink:href="#SVGID_3_"  style="overflow:visible;"/>
		</clipPath>
		<path class="st1" d="M751.8,23.6c-27.9,0-47.1,21.1-47.1,52.1c-0.4,30.8,19.5,52.6,47.1,52.2c23,0,40.6-14.1,44.2-35.4h-18.2
			c-3.1,11.2-13.2,18.6-26,18.6c-17.1,0-28.9-13.6-28.9-35.4c0-21.1,11.4-35.4,29.1-35.4c12.9,0,22.7,7.3,25.9,18.6H796
			C792.4,37.6,774.8,23.6,751.8,23.6 M676.2,126.5h17.2V25h-17.2V126.5z M590.4,96.7c1.3,18.9,15.8,31.2,37.7,31.2
			c22.1,0,36.7-12.6,36.7-31.4c0-14.7-8.4-25.3-25.7-28.6L622.9,65c-8.8-1.5-13.9-5.2-13.9-12.6c0-8.4,6.8-13.6,17-13.6
			c11.3,0,18.5,6.3,19.1,15.8h17.6c-0.3-18.6-14.5-31.1-35.8-31.1c-21.4,0-35.8,12.5-35.8,31.1c0,14.4,8.4,24.4,26.6,27.7l16.2,2.9
			c3.5,0.7,6.5,1.8,9.1,3.5c2.7,1.7,4,4.8,4,9.1c0,8.8-6.8,14.4-18.2,14.4c-12,0-19.7-6-20.7-15.7h-17.6V96.7z M508.6,96.7
			c1.3,18.9,15.8,31.2,37.7,31.2c22.1,0,36.7-12.6,36.7-31.4c0-14.7-8.4-25.3-25.7-28.6L541.1,65c-8.8-1.5-13.9-5.2-13.9-12.6
			c0-8.4,6.8-13.6,17-13.6c11.3,0,18.5,6.3,19.1,15.8h17.5c-0.3-18.6-14.5-31.1-35.8-31.1c-21.4,0-35.8,12.5-35.8,31.1
			c0,14.4,8.4,24.4,26.6,27.7l16.2,2.9c3.5,0.7,6.5,1.8,9.1,3.5c2.7,1.7,4,4.8,4,9.1c0,8.8-6.8,14.4-18.2,14.4
			c-12,0-19.7-6-20.7-15.7h-17.5V96.7z M475.7,91.1h-31.1l15.6-47.6L475.7,91.1z M480.5,102.1l6.9,24.4h19.7L470.4,25h-20.8
			L414,126.5H433l6.9-24.4H480.5z M342.3,25v101.5h64.6v-16.8h-47.3V25H342.3z M286.9,23.6c-27.9,0-47.1,21.1-47.1,52.1
			c-0.4,30.8,19.5,52.6,47.1,52.2c23,0,40.6-14.1,44.2-35.4h-18.2c-3.1,11.2-13.2,18.6-26,18.6c-17.1,0-28.9-13.6-28.9-35.4
			c0-21.1,11.4-35.4,29.1-35.4c12.9,0,22.7,7.3,25.9,18.6h18.2C327.4,37.6,309.8,23.6,286.9,23.6 M169.9,68.5v58h38.4v-10.9h-26.9
			v-12.9h24.6V92.5h-24.6V79.4h26.9V68.5H169.9z M115.9,68.5v58h11.6V102h22.8v24.5h11.6v-58h-11.6V92h-22.8V68.5H115.9z
			 M108.7,79.3V68.5H66v10.7h15.6v47.3h11.6V79.3H108.7z"/>
	</g>
</g>
</svg>
