<?xml version="1.0" encoding="utf-8"?>
<!-- Generator: Adobe Illustrator 25.1.0, SVG Export Plug-In . SVG Version: 6.00 Build 0)  -->
<svg version="1.1" id="Layer_1" xmlns="http://www.w3.org/2000/svg" xmlns:xlink="http://www.w3.org/1999/xlink" x="0px" y="0px"
	 viewBox="0 0 458.7 280.1" style="enable-background:new 0 0 458.7 280.1;" xml:space="preserve">
<style type="text/css">
	.st0{clip-path:url(#SVGID_2_);fill:#FFFFFF;}
</style>
<g>
	<defs>
		<rect id="SVGID_1_" x="16.8" y="20.5" width="423.7" height="238.8"/>
	</defs>
	<clipPath id="SVGID_2_">
		<use xlink:href="#SVGID_1_"  style="overflow:visible;"/>
	</clipPath>
	<path class="st0" d="M386.2,91.8l-20.1,59.7h-30.8c6.4-10.1,14.4-21.6,24-34.5c9.5-13,16.5-21.6,20.8-26c2.2-2,3.9-3.1,4.9-3.3
		C386.4,87.7,386.8,89.1,386.2,91.8 M433.5,73.4c-4.6-2.2-10.7-3.3-18.3-3.3c-8.9,0-16.1,1.3-21.6,3.9c-5.8,2.6-11,6-15.7,10.4
		c-4.6,4-11,11.2-19.3,21.5c-8.1,10.4-47.9,68.9-58.4,80.4c-10.6,11.9-22.3,17.9-35.2,18c-3,0-6.1-0.5-9.5-1.4
		c-3.5-1-6.7-2.7-9.7-5.2c-3-2.4-5.4-5.7-7.4-9.9c-2.1-4-3.1-9.2-3.1-15.5c0-4,0.5-7.5,1.5-10.3c0.9-2.8,1.9-5.2,3.2-6.9
		c1.4-1.8,2.7-3.2,3.9-4.1c1.1-0.8,2.1-1.2,2.9-1.2c0.9,0,1.9,0.1,2.9,0.4c1.1,0.5,2.2,1.7,3.5,3.6c0.8,1.1,1.7,2.1,2.7,3.3
		c1.1,1.2,2.5,1.8,4.4,1.8c2.4,0,4.4-1,6-2.9c1.6-1.7,2.4-4.4,2.4-8c0-1.9-0.7-4.2-2.2-6.9c-1.7-2.8-5-4.3-9.7-4.5
		c-8.5,0.1-15.2,4.2-20.2,12.2c-5,7.8-7.5,17.4-7.6,28.8c0.2,15.6,3.8,27.2,10.7,34.6c6.6,7.4,14.2,11.1,22.6,11.1
		c7.8,0,15.6-2.1,23.4-6.4c7.8-4.5,15.7-12.4,23.8-23.7c9.5-14.6,18.3-25.8,22.4-33.8h31.7L353,190.7c-1.5,4.5-3.5,7.6-5.9,9.1
		c-2.5,1.5-5.2,2.1-8.3,2h-4.3c-1.2,0.1-1.8,0.7-1.8,1.7l-0.6,4.3c-0.4,1.2,0.2,1.8,1.7,2c1.7-0.3,10.7-0.5,27-0.6
		c9.7,0,16.9,0.1,21.4,0.2c4.5,0.3,7.2,0.4,8.3,0.4c1.9,0,2.7-0.5,2.6-1.6l0.6-4.8c0-1-0.5-1.5-1.5-1.5h-7.1c-3.5-0.1-5.3-2-5.3-5.6
		c0-2.6,0.8-6.4,2.3-11.4L411,91.6c1.6-5,3-8.4,4.3-10.3c1.3-1.7,2.9-2.5,4.7-2.5c1.6,0,3.1,0.4,4.6,1.3c1.4,0.8,2.4,1.7,2.9,2.8
		c0.8,1.1,1.8,2.1,3,2.9c1.2,1.1,2.7,1.6,4.5,1.6c1.6,0,2.9-0.5,3.9-1.6c1-0.8,1.5-1.8,1.5-3.1C440.3,78.8,438,75.7,433.5,73.4"/>
	<path class="st0" d="M195.7,259.3c-4.9,0-9.8-1-14.8-2.9c-5-1.8-9.6-4.9-13.9-9.1c-4.2-4.2-7.6-9.9-10.3-17.2
		c-2.9-7.3-4.3-16.4-4.3-27.1c0-15.7,2.9-32.7,8.6-50.9c5.5-18.3,14-35.1,25.4-50.5c5.5-7.3,10.7-13.1,15.6-17.4
		c4.9-4.2,9.3-7.4,13.2-9.4c3.9-2,7.4-3.3,10.6-4.1c2.9-0.4,5.3-0.6,7.3-0.6c10.6,0.1,19.1,3.7,25.5,10.8c6.5,6.7,9.8,15,9.9,24.8
		c0,3.8-1,7.3-3,10.5c-2,3.5-4.8,5.3-8.6,5.4c-3,0-5.5-1.3-7.7-3.9c-2.4-2.5-3.5-5.8-3.5-9.9c0-2.4,0.3-4.8,1-7.1
		c0.5-2.1,0.8-3.8,0.8-5.1c0-5.5-1-10-2.9-13.4c-2.2-3.4-6.3-5.1-12.2-5.1c-4.6,0.1-9.5,3.2-14.8,9.3c-5.4,6.2-10.3,14.5-14.7,25
		c-6.6,16.4-12,33.6-16.3,51.5c-4.6,18-6.9,32.3-6.9,42.8c-0.7,27.3,7.8,41,25.4,40.8c6.9-0.1,12.9-2.6,18.2-7.3
		c5.2-4.3,8.8-8.8,11-13.6c2.4-5.2,3.8-9.9,4.3-14.4c1.5-3.8,3.5-5.7,6-5.7c2.1,0,3.4,0.6,4.1,1.9c0.4,1.2,0.6,2.8,0.6,4.8
		c0,2.3-1.2,5.9-3.6,10.7c-2.4,5-5.9,10.3-10.5,15.8c-4.5,5.4-10.1,10.1-16.7,14.1C211.8,257.1,204.2,259.2,195.7,259.3"/>
	<path class="st0" d="M109.8,179.9c-2.8,7.7-3.6,12.2-2.2,15.2c1.3,3.3,5.1,4.9,11.4,4.9h11c1.9,0.2,2.6,1,2.1,2.5l-1.2,5.6
		c0,1.3-1.2,1.9-3.5,1.9c-1.7,0-5.8-0.2-12.3-0.5c-6.6-0.2-17.1-0.2-31.5-0.2c-25.2,0.2-39.4,0.4-42.5,0.7c-2.1,0-2.8-0.8-2.3-2.4
		l1-5.6c0-1.4,1-2,3-2h4.8c8.3,0,14.3-1.9,18.3-5.6c3.9-3.7,7.4-9.1,10.5-18l42.2-113.6c-16.7-1.4-32.2-2.1-46.5-2.1
		c-14.5,0.2-25.6,2.7-33.3,7.8C31.1,73.6,27.2,80.2,27.2,88c0,1,0.2,2.3,0.5,3.7c0.2,1.6,0.9,3.3,2.3,5.1c1.1,1.6,2.6,1.6,4.7,0
		c3.2-1.8,6.8-2.7,10.9-2.7c3.5,0,6.6,1.1,9.2,3.2c2.6,2.4,3.9,5.8,3.9,10.2c0,3.1-1.4,5.9-4.1,8.5c-2.9,3.1-7.5,4.6-13.8,4.6
		c-2.4,0-4.8-0.6-7.4-1.8c-2.6-1-5.2-2.5-7.8-4.6c-2.6-2.4-4.5-5.4-6-9.2c-1.9-4-2.8-8.8-2.8-14.4c-0.2-5.2,1.5-11.3,5.2-18.3
		c3.5-7,9.8-13.4,19.2-19.3c12-7.3,30.6-11.1,55.9-11.2c23.8,0.2,46,1.6,66.7,4.2c18.7,2.6,32.3,4,40.6,4.2c4,0.2,7.4-0.3,10.1-1.4
		c2.6-1,3.9-2.9,4.1-5.7c0-1.8-0.8-3.7-2.5-5.9c-2.3-1.6-3.6-4.1-3.7-7.5c0-1.8,0.8-3.8,2.4-5.9c1.7-2,4.5-3.1,8.5-3.2
		c5.4,0.2,9,1.6,10.8,4.4c1.6,3.1,2.4,6.6,2.4,10.5c0,2.2-0.6,5-1.9,8.6c-1.7,3.6-4.3,7.3-7.7,11c-3.5,3.8-8.1,6.9-13.8,9.6
		c-5.8,2.7-13.1,4.1-21.8,4.1c-4.5,0-10.4-0.4-17.7-1.2c-7.3-0.8-14.8-1.4-22.4-1.9L109.8,179.9z"/>
</g>
</svg>
