<?xml version="1.0" encoding="utf-8"?>
<!-- Generator: Adobe Illustrator 25.1.0, SVG Export Plug-In . SVG Version: 6.00 Build 0)  -->
<svg version="1.1" id="Layer_1" xmlns="http://www.w3.org/2000/svg" xmlns:xlink="http://www.w3.org/1999/xlink" x="0px" y="0px"
	 viewBox="0 0 458.7 280.1" style="enable-background:new 0 0 458.7 280.1;" xml:space="preserve">
<style type="text/css">
	.st0{fill:#FFFFFF;}
	.st1{clip-path:url(#SVGID_2_);fill:#FFFFFF;}
</style>
<polygon class="st0" points="24,130.2 24,147.8 51.7,147.8 51.7,225.7 72.2,225.7 72.2,147.8 99.9,147.8 99.9,130.2 "/>
<g>
	<defs>
		<rect id="SVGID_1_" x="24" y="53.9" width="410" height="171.8"/>
	</defs>
	<clipPath id="SVGID_2_">
		<use xlink:href="#SVGID_1_"  style="overflow:visible;"/>
	</clipPath>
	<path class="st1" d="M194.2,53.9c-49.6,0-83.7,34.8-83.7,85.8c-0.7,50.7,34.6,86.7,83.7,86c40.8,0,72.2-23.3,78.6-58.3h-32.5
		c-5.5,18.4-23.5,30.7-46.3,30.7c-30.4,0-51.4-22.4-51.4-58.3c0-34.8,20.3-58.3,51.6-58.3c22.8,0,40.3,12,46.1,30.7h32.5
		C266.4,77,235,53.9,194.2,53.9"/>
</g>
<path class="st0" d="M350.5,89l27.7,78.4h-55.3L350.5,89z M331.6,58.5l-63.2,167.1h33.9l12.2-40.2h72.2l12.2,40.2h35L368.8,58.5
	H331.6z"/>
</svg>
