<?xml version="1.0" encoding="utf-8"?>
<!-- Generator: Adobe Illustrator 25.2.2, SVG Export Plug-In . SVG Version: 6.00 Build 0)  -->
<svg version="1.1" id="Layer_1" xmlns="http://www.w3.org/2000/svg" xmlns:xlink="http://www.w3.org/1999/xlink" x="0px" y="0px"
	 viewBox="0 0 458.7 212.1" style="enable-background:new 0 0 458.7 212.1;" xml:space="preserve">
<style type="text/css">
	.st0{fill:#FFFFFF;}
</style>
<path class="st0" d="M390.5,133.7h-57l28.5-87.2L390.5,133.7z M399.3,153.8l12.6,44.7H448l-67.2-186h-38.2l-65.2,186h35l12.6-44.7
	H399.3z M200.9,10c-51.1,0-86.2,38.7-86.2,95.5c-0.7,56.4,35.6,96.4,86.2,95.7c42.1,0,74.4-25.8,81-64.9h-33.4
	c-5.8,20.5-24.3,34.1-47.7,34.1c-31.4,0-53-24.9-53-64.9c0-38.7,20.9-64.9,53.3-64.9c23.6,0,41.6,13.4,47.5,34.1H282
	C275.3,35.6,243,10,200.9,10 M116.1,38.7V11.8H10v26.6h38.7v107.2h28.8V38.7H116.1z"/>
</svg>
